HIERARCHY
ROOT Hips
{
	OFFSET 0.000000 71.427986 0.000000
	CHANNELS 6 Xposition Yposition Zposition Xrotation Yrotation Zrotation
	JOINT Pelvis
	{
		OFFSET 0.000000 0.000000 0.000000
		CHANNELS 3 Xrotation Yrotation Zrotation
		JOINT LeftUpLeg
		{
			OFFSET 6.797100 -2.508499 -1.318700
			CHANNELS 3 Xrotation Yrotation Zrotation
			JOINT LeftLeg
			{
				OFFSET 0.069008 -29.241863 0.690200
				CHANNELS 3 Xrotation Yrotation Zrotation
				JOINT LeftFoot
				{
					OFFSET -0.069008 -29.568123 -0.266800
					CHANNELS 3 Xrotation Yrotation Zrotation
					JOINT LeftToeBase
					{
						OFFSET 3.145500 -8.631000 16.059900
						CHANNELS 3 Xrotation Yrotation Zrotation
						End Site
						{
							OFFSET 0.000000 18.501587 0.000000
						}
					}
				}
			}
			JOINT Left_ShortSleeve
			{
				OFFSET 0.265923 -10.480953 1.153800
				CHANNELS 3 Xrotation Yrotation Zrotation
				End Site
				{
					OFFSET 1.725763 19.823879 0.000000
				}
			}
		}
		JOINT RightUpLeg
		{
			OFFSET -6.797100 -2.508499 -1.318700
			CHANNELS 3 Xrotation Yrotation Zrotation
			JOINT RightLeg
			{
				OFFSET -0.082453 -29.241932 0.688000
				CHANNELS 3 Xrotation Yrotation Zrotation
				JOINT RightFoot
				{
					OFFSET 0.082453 -29.568058 -0.264600
					CHANNELS 3 Xrotation Yrotation Zrotation
					JOINT RightToeBase
					{
						OFFSET -3.115300 -8.682800 16.113400
						CHANNELS 3 Xrotation Yrotation Zrotation
						End Site
						{
							OFFSET 0.000000 18.567114 0.000000
						}
					}
				}
			}
			JOINT Right_ShortSleeve
			{
				OFFSET -0.265923 -10.480953 1.153800
				CHANNELS 3 Xrotation Yrotation Zrotation
				End Site
				{
					OFFSET -1.725766 19.823910 0.000000
				}
			}
		}
	}
	JOINT Spine
	{
		OFFSET 0.000000 13.368103 0.470500
		CHANNELS 3 Xrotation Yrotation Zrotation
		JOINT Spine1
		{
			OFFSET 0.147000 13.837402 0.538800
			CHANNELS 3 Xrotation Yrotation Zrotation
			JOINT Spine2
			{
				OFFSET 0.168000 16.242897 -1.435500
				CHANNELS 3 Xrotation Yrotation Zrotation
				JOINT Neck
				{
					OFFSET 0.217200 18.631500 -1.679100
					CHANNELS 3 Xrotation Yrotation Zrotation
					JOINT Head
					{
						OFFSET 0.000000 6.599396 1.385900
						CHANNELS 3 Xrotation Yrotation Zrotation
						JOINT Hat
						{
							OFFSET -0.532200 27.220596 -10.096100
							CHANNELS 3 Xrotation Yrotation Zrotation
							End Site
							{
								OFFSET 0.000000 22.029861 0.000000
							}
						}
						JOINT HairD
						{
							OFFSET -10.777400 17.437393 -1.325900
							CHANNELS 3 Xrotation Yrotation Zrotation
							JOINT HairD1
							{
								OFFSET -3.290299 -11.051193 1.062200
								CHANNELS 3 Xrotation Yrotation Zrotation
								End Site
								{
									OFFSET 0.000000 11.579437 0.000000
								}
							}
						}
						JOINT HairB
						{
							OFFSET -10.777400 17.437393 1.467900
							CHANNELS 3 Xrotation Yrotation Zrotation
							JOINT HairB1
							{
								OFFSET -1.561200 -12.956299 3.590200
								CHANNELS 3 Xrotation Yrotation Zrotation
								End Site
								{
									OFFSET 0.000000 13.534866 0.000000
								}
							}
						}
						JOINT HairA
						{
							OFFSET 9.713100 17.437393 1.467900
							CHANNELS 3 Xrotation Yrotation Zrotation
							JOINT HairA1
							{
								OFFSET 1.561200 -12.956299 3.590200
								CHANNELS 3 Xrotation Yrotation Zrotation
								End Site
								{
									OFFSET 0.000000 13.534866 0.000000
								}
							}
						}
						JOINT HairC
						{
							OFFSET 9.713100 17.437393 -1.325900
							CHANNELS 3 Xrotation Yrotation Zrotation
							JOINT HairC1
							{
								OFFSET 3.290300 -11.051193 1.062200
								CHANNELS 3 Xrotation Yrotation Zrotation
								End Site
								{
									OFFSET 0.000000 11.579437 0.000000
								}
							}
						}
					}
				}
				JOINT LeftShoulder
				{
					OFFSET 5.101800 15.108002 -2.763700
					CHANNELS 3 Xrotation Yrotation Zrotation
					JOINT LeftArm
					{
						OFFSET 9.825497 2.506317 -1.597400
						CHANNELS 3 Xrotation Yrotation Zrotation
						JOINT LeftForeArm
						{
							OFFSET 21.966244 0.000000 0.000000
							CHANNELS 3 Xrotation Yrotation Zrotation
							JOINT LeftHand
							{
								OFFSET 33.879036 0.000000 0.000000
								CHANNELS 3 Xrotation Yrotation Zrotation
								JOINT LeftHandThumb1
								{
									OFFSET 6.715286 -2.359680 3.363841
									CHANNELS 3 Xrotation Yrotation Zrotation
									JOINT LeftHandThumb2
									{
										OFFSET 2.507072 -1.447464 1.447461
										CHANNELS 3 Xrotation Yrotation Zrotation
										JOINT LeftHandThumb3
										{
											OFFSET 2.898338 -1.673355 1.673357
											CHANNELS 3 Xrotation Yrotation Zrotation
											End Site
											{
												OFFSET -0.295959 3.727692 -0.131651
											}
										}
									}
								}
								JOINT LeftHandIndex1
								{
									OFFSET 14.190811 -0.254547 3.840278
									CHANNELS 3 Xrotation Yrotation Zrotation
									JOINT LeftHandIndex2
									{
										OFFSET 3.551727 0.000000 -0.000000
										CHANNELS 3 Xrotation Yrotation Zrotation
										JOINT LeftHandIndex3
										{
											OFFSET 2.894196 0.000000 0.000000
											CHANNELS 3 Xrotation Yrotation Zrotation
											End Site
											{
												OFFSET -1.000603 2.690872 0.366626
											}
										}
									}
								}
								JOINT LeftHandMiddle1
								{
									OFFSET 13.776489 0.000000 0.000000
									CHANNELS 3 Xrotation Yrotation Zrotation
									JOINT LeftHandMiddle2
									{
										OFFSET 3.438232 0.000000 0.000000
										CHANNELS 3 Xrotation Yrotation Zrotation
										JOINT LeftHandMiddle3
										{
											OFFSET 3.691551 0.000000 0.000000
											CHANNELS 3 Xrotation Yrotation Zrotation
											End Site
											{
												OFFSET -1.082298 3.499527 0.457670
											}
										}
									}
								}
								JOINT LeftHandRing1
								{
									OFFSET 13.966164 -0.268127 -3.067488
									CHANNELS 3 Xrotation Yrotation Zrotation
									JOINT LeftHandRing2
									{
										OFFSET 3.162567 0.000000 0.000000
										CHANNELS 3 Xrotation Yrotation Zrotation
										JOINT LeftHandRing3
										{
											OFFSET 3.324348 0.000000 0.000000
											CHANNELS 3 Xrotation Yrotation Zrotation
											End Site
											{
												OFFSET -0.861900 3.184998 0.405154
											}
										}
									}
								}
								JOINT LeftHandPinky1
								{
									OFFSET 13.131393 -0.168503 -5.746925
									CHANNELS 3 Xrotation Yrotation Zrotation
									JOINT LeftHandPinky2
									{
										OFFSET 2.849182 0.000000 0.000000
										CHANNELS 3 Xrotation Yrotation Zrotation
										JOINT LeftHandPinky3
										{
											OFFSET 2.805038 0.000000 0.000000
											CHANNELS 3 Xrotation Yrotation Zrotation
											End Site
											{
												OFFSET -0.882500 2.642609 0.325652
											}
										}
									}
								}
							}
							JOINT Left_Sleeve
							{
								OFFSET 6.592125 -0.646545 0.805568
								CHANNELS 3 Xrotation Yrotation Zrotation
								End Site
								{
									OFFSET -0.000179 20.275787 -0.000000
								}
							}
						}
					}
				}
				JOINT RightShoulder
				{
					OFFSET -5.731700 15.108002 -2.763700
					CHANNELS 3 Xrotation Yrotation Zrotation
					JOINT RightArm
					{
						OFFSET -9.825497 2.506317 -1.597400
						CHANNELS 3 Xrotation Yrotation Zrotation
						JOINT RightForeArm
						{
							OFFSET -21.966242 0.000000 0.000000
							CHANNELS 3 Xrotation Yrotation Zrotation
							JOINT RightHand
							{
								OFFSET -33.879032 0.000000 0.000000
								CHANNELS 3 Xrotation Yrotation Zrotation
								JOINT RightHandThumb1
								{
									OFFSET -6.715286 -2.359680 3.363841
									CHANNELS 3 Xrotation Yrotation Zrotation
									JOINT RightHandThumb2
									{
										OFFSET -2.507072 -1.447464 1.447461
										CHANNELS 3 Xrotation Yrotation Zrotation
										JOINT RightHandThumb3
										{
											OFFSET -2.898338 -1.673355 1.673357
											CHANNELS 3 Xrotation Yrotation Zrotation
											End Site
											{
												OFFSET 0.295959 3.727692 -0.131651
											}
										}
									}
								}
								JOINT RightHandIndex1
								{
									OFFSET -14.190811 -0.254547 3.840278
									CHANNELS 3 Xrotation Yrotation Zrotation
									JOINT RightHandIndex2
									{
										OFFSET -3.551727 0.000000 -0.000000
										CHANNELS 3 Xrotation Yrotation Zrotation
										JOINT RightHandIndex3
										{
											OFFSET -2.894196 0.000000 0.000000
											CHANNELS 3 Xrotation Yrotation Zrotation
											End Site
											{
												OFFSET 1.000603 2.690872 0.366626
											}
										}
									}
								}
								JOINT RightHandMiddle1
								{
									OFFSET -13.776489 0.000000 0.000000
									CHANNELS 3 Xrotation Yrotation Zrotation
									JOINT RightHandMiddle2
									{
										OFFSET -3.438232 0.000000 0.000000
										CHANNELS 3 Xrotation Yrotation Zrotation
										JOINT RightHandMiddle3
										{
											OFFSET -3.691551 0.000000 0.000000
											CHANNELS 3 Xrotation Yrotation Zrotation
											End Site
											{
												OFFSET 1.082298 3.499527 0.457670
											}
										}
									}
								}
								JOINT RightHandRing1
								{
									OFFSET -13.966164 -0.268127 -3.067488
									CHANNELS 3 Xrotation Yrotation Zrotation
									JOINT RightHandRing2
									{
										OFFSET -3.162567 0.000000 0.000000
										CHANNELS 3 Xrotation Yrotation Zrotation
										JOINT RightHandRing3
										{
											OFFSET -3.324348 0.000000 0.000000
											CHANNELS 3 Xrotation Yrotation Zrotation
											End Site
											{
												OFFSET 0.861900 3.184998 0.405154
											}
										}
									}
								}
								JOINT RightHandPinky1
								{
									OFFSET -13.131393 -0.168503 -5.746925
									CHANNELS 3 Xrotation Yrotation Zrotation
									JOINT RightHandPinky2
									{
										OFFSET -2.849182 0.000000 0.000000
										CHANNELS 3 Xrotation Yrotation Zrotation
										JOINT RightHandPinky3
										{
											OFFSET -2.805038 0.000000 0.000000
											CHANNELS 3 Xrotation Yrotation Zrotation
											End Site
											{
												OFFSET 0.882500 2.642609 0.325652
											}
										}
									}
								}
							}
							JOINT Right_Sleeve
							{
								OFFSET -6.592125 -0.646545 0.805568
								CHANNELS 3 Xrotation Yrotation Zrotation
								End Site
								{
									OFFSET 0.000179 20.275787 -0.000000
								}
							}
						}
					}
				}
				JOINT Bind_Right_JacketString
				{
					OFFSET -3.534800 11.969597 7.200700
					CHANNELS 3 Xrotation Yrotation Zrotation
					JOINT Bind_Right_JacketString1
					{
						OFFSET -0.319900 -6.102600 2.794100
						CHANNELS 3 Xrotation Yrotation Zrotation
						End Site
						{
							OFFSET 0.000000 6.719452 0.000000
						}
					}
				}
				JOINT Bind_Left_JacketString
				{
					OFFSET 2.904800 11.969597 7.200700
					CHANNELS 3 Xrotation Yrotation Zrotation
					JOINT Bind_Left_JacketString1
					{
						OFFSET 0.364800 -5.904503 3.186800
						CHANNELS 3 Xrotation Yrotation Zrotation
						End Site
						{
							OFFSET 0.000000 6.719513 0.000000
						}
					}
				}
				JOINT HairE
				{
					OFFSET 5.915200 17.612701 -11.592200
					CHANNELS 3 Xrotation Yrotation Zrotation
					JOINT HairE1
					{
						OFFSET 0.289200 -7.171898 -1.284500
						CHANNELS 3 Xrotation Yrotation Zrotation
						End Site
						{
							OFFSET 0.000000 7.291756 0.000000
						}
					}
				}
				JOINT HairF
				{
					OFFSET -0.864800 17.612701 -11.592200
					CHANNELS 3 Xrotation Yrotation Zrotation
					JOINT HairF1
					{
						OFFSET 0.000000 -14.087097 -2.127501
						CHANNELS 3 Xrotation Yrotation Zrotation
						End Site
						{
							OFFSET 0.000000 14.246841 0.000000
						}
					}
				}
				JOINT HairG
				{
					OFFSET -8.087700 17.612701 -11.592200
					CHANNELS 3 Xrotation Yrotation Zrotation
					JOINT HairG1
					{
						OFFSET -0.293600 -6.081398 -0.910100
						CHANNELS 3 Xrotation Yrotation Zrotation
						End Site
						{
							OFFSET 0.000000 6.156120 0.000000
						}
					}
				}
			}
		}
	}
	JOINT Pouch
	{
		OFFSET 0.000000 4.394501 10.847300
		CHANNELS 3 Xrotation Yrotation Zrotation
		End Site
		{
			OFFSET 0.000000 21.880577 0.000000
		}
	}
	JOINT Bag
	{
		OFFSET -13.229000 4.813004 -0.593300
		CHANNELS 3 Xrotation Yrotation Zrotation
		End Site
		{
			OFFSET 0.000000 21.880577 0.000000
		}
	}
	JOINT OccupyGuyFacialAnim_Joint
	{
		OFFSET 1.000000 -70.206398 -1.655000
		CHANNELS 3 Xrotation Yrotation Zrotation
		End Site
		{
			OFFSET 0.000000 21.880577 0.000000
		}
	}
}
MOTION
Frames: 4
Frame Time: 0.033333
8.484269 67.567543 1.535518 -8.142596 -7.678815 -9.040303 -0.000000 -0.000001 -0.000000 -9.409021 11.147523 20.483065 41.584391 4.097039 0.226701 -24.143742 4.862430 -10.700775 0.000000 -0.000000 0.000000 0.000001 0.000000 -0.000000 -33.919375 -6.588379 -16.536197 69.228769 -8.934021 4.314674 -8.453151 -19.957907 -9.329844 -0.000000 0.000001 0.000000 -0.000003 0.000000 -0.000004 15.816269 0.036803 0.503042 5.477099 -0.180851 2.671200 5.416182 -0.027716 2.730553 4.367686 2.111382 -2.279173 18.896386 7.425898 -1.753728 -0.000000 -0.000000 0.000000 -0.000000 -0.000000 0.000000 -0.000000 -0.000000 0.000000 -0.000000 -0.000000 0.000000 0.000001 -0.000000 0.000000 -0.000000 -0.000000 0.000000 0.000001 -0.000000 0.000000 -0.000000 -0.000000 0.000000 -0.000000 -0.000000 0.000000 6.589151 -12.606108 7.736951 -36.392802 24.111611 -34.717848 0.000033 -76.939356 0.000043 -36.067534 -14.810546 -5.208905 -1.627885 3.480981 7.546670 4.622488 16.315370 1.369058 -0.000002 0.000001 0.000002 0.034776 0.692680 -5.749693 0.034799 0.692757 -5.750408 0.000001 0.000002 0.000002 0.034579 0.690767 -5.733691 0.034982 0.694682 -5.766391 -0.000000 0.000000 0.000001 0.421464 4.693227 -5.282641 0.034807 0.692775 -5.750411 -0.000003 0.000002 -0.000001 1.235106 14.340979 -4.225546 0.022965 -3.361807 -6.258596 -0.000001 0.000001 -0.000001 0.000001 0.000000 -0.000000 6.736082 21.430741 -0.471762 -7.672291 -12.350059 54.762254 0.000143 78.789155 -0.000132 -17.766987 -4.885332 -6.250367 -1.847003 -3.340274 -6.548681 5.119977 -13.941917 -0.598982 0.000000 -0.000003 0.000002 0.035037 -0.698631 5.742629 0.000012 -0.000217 0.001761 0.000001 -0.000001 0.000002 0.035040 -0.698631 5.742624 0.000004 -0.000214 0.001769 0.000003 0.000001 -0.000002 0.421029 -4.698697 5.270866 -0.000001 -0.000205 0.001776 0.000002 0.000003 0.000000 0.911441 -10.303667 4.648778 0.000002 -0.000223 0.001773 -0.000002 0.000003 0.000001 0.000005 0.000001 0.000000 -0.000000 0.000000 -0.000000 0.000001 0.000000 -0.000000 -0.000000 0.000000 -0.000000 -0.000000 0.000000 -0.000000 -0.000000 0.000000 -0.000000 0.000001 0.000000 -0.000000 -0.000000 0.000000 -0.000000 -0.000000 0.000000 -0.000000 -0.000000 0.000000 -0.000000 0.000001 0.000000 -0.000000 -0.000000 -0.000001 -0.000000 -0.000000 -0.000001 -0.000000 -0.000000 -0.000001 -0.000000 
8.391382 67.595604 3.951442 -8.763463 -7.219860 -8.852501 0.000001 -0.000000 -0.000000 -5.409177 12.099147 19.487177 39.584778 4.253152 1.116774 -25.501384 5.092496 -11.616989 -0.000000 0.000000 -0.000000 0.000001 -0.000001 -0.000001 -35.632629 -6.993968 -15.684305 64.256992 -7.860957 4.319389 -7.098739 -21.176908 -10.700903 -0.000000 0.000002 -0.000001 0.000000 -0.000001 -0.000003 15.023240 -3.200541 1.393424 5.515460 -1.194052 3.451167 5.464882 -1.023477 3.505632 3.988014 2.507166 -2.118635 21.168045 9.930211 -4.798927 0.000002 0.000000 0.000000 0.000002 0.000000 0.000000 0.000002 0.000000 0.000000 0.000002 0.000000 0.000000 -0.000003 0.000000 -0.000000 0.000002 0.000000 0.000000 -0.000003 0.000000 -0.000000 0.000002 0.000000 0.000000 0.000002 0.000000 0.000000 6.507377 -12.315197 8.256272 -34.484956 23.198831 -35.134859 -0.000076 -78.809161 -0.000060 -38.661876 -11.282655 1.401759 -1.627702 3.476628 7.544170 4.622919 16.320674 1.369390 -0.000001 -0.000000 0.000000 0.034788 0.692809 -5.750822 0.034874 0.693586 -5.757298 0.000001 -0.000001 -0.000000 0.034600 0.690890 -5.734840 0.035078 0.695519 -5.773266 -0.000001 0.000001 -0.000001 0.421573 4.693364 -5.283760 0.034871 0.693582 -5.757312 -0.000001 0.000003 0.000000 1.235397 14.341099 -4.226710 0.023048 -3.360995 -6.265494 -0.000001 0.000000 0.000001 0.000001 0.000000 -0.000001 6.553571 20.685467 -0.659368 -8.000172 -13.964218 54.282457 0.000112 79.224300 -0.000092 -17.595144 -5.206226 -6.332324 -1.846953 -3.337039 -6.548183 5.120587 -13.948237 -0.599319 -0.000001 -0.000002 0.000002 0.035050 -0.698577 5.742088 -0.000005 -0.001902 0.015655 0.000002 -0.000002 -0.000002 0.035043 -0.698573 5.742090 -0.000003 -0.001909 0.015659 0.000004 0.000000 -0.000003 0.420995 -4.698606 5.270357 -0.000015 -0.001911 0.015666 -0.000001 -0.000003 -0.000001 0.911353 -10.303598 4.648250 0.000010 -0.001913 0.015650 -0.000003 0.000001 0.000004 -0.000001 -0.000004 0.000001 0.000002 -0.000001 0.000001 0.000002 -0.000001 0.000000 0.000002 -0.000001 0.000001 0.000002 -0.000001 0.000001 0.000002 -0.000001 0.000001 0.000002 -0.000001 0.000000 0.000002 -0.000001 0.000001 0.000002 -0.000001 0.000001 0.000002 -0.000001 0.000001 0.000002 -0.000001 0.000000 0.000001 -0.000000 -0.000000 0.000001 -0.000000 -0.000000 0.000001 -0.000000 -0.000000 
8.193040 67.491806 6.384048 -8.966823 -6.611978 -8.756108 -0.000000 0.000000 0.000001 -1.850398 12.627173 18.737569 37.656407 4.489830 1.941460 -26.807314 5.367876 -12.648211 0.000000 -0.000002 0.000000 -0.000000 0.000001 0.000000 -36.974225 -7.404742 -14.673866 58.645657 -6.950458 4.185834 -6.920603 -20.826206 -10.073473 0.000000 -0.000003 -0.000000 0.000000 -0.000000 -0.000002 14.030698 -6.273906 2.432985 5.614480 -2.143092 4.228756 5.583026 -1.963309 4.271004 3.495473 2.768947 -1.905877 21.340110 11.791088 -7.173127 0.000001 0.000000 -0.000000 0.000001 0.000000 -0.000000 0.000001 0.000000 -0.000000 0.000001 0.000000 -0.000000 -0.000002 -0.000000 -0.000000 0.000001 0.000000 -0.000000 -0.000002 -0.000000 -0.000000 0.000001 0.000000 -0.000000 0.000001 0.000000 -0.000000 6.263161 -11.797456 8.125649 -32.789522 22.146805 -35.398193 -0.000005 -79.443037 -0.000005 -40.921340 -10.677893 2.898794 -1.627366 3.468068 7.539253 4.623866 16.331112 1.370011 0.000000 0.000001 0.000002 0.034816 0.693087 -5.753014 0.035047 0.695203 -5.770885 0.000001 0.000001 -0.000002 0.034624 0.691168 -5.737037 0.035258 0.697129 -5.786829 0.000001 -0.000001 -0.000001 0.421745 4.693615 -5.285967 0.035050 0.695209 -5.770836 -0.000000 0.000001 0.000000 1.235972 14.341326 -4.228985 0.023223 -3.359388 -6.279030 0.000002 -0.000000 0.000001 -0.000003 0.000001 0.000000 6.462515 20.464840 -0.487657 -8.885525 -16.814473 53.526205 0.000310 80.137230 -0.000308 -16.979461 -5.373921 -6.364490 -1.846878 -3.330663 -6.547156 5.121815 -13.960709 -0.600013 -0.000000 0.000000 0.000003 0.035028 -0.698454 5.741121 -0.000004 -0.005236 0.042972 -0.000001 0.000000 -0.000001 0.035016 -0.698445 5.741124 0.000012 -0.005245 0.042954 -0.000003 -0.000000 0.000001 0.420915 -4.698524 5.269364 -0.000009 -0.005214 0.042972 0.000001 0.000001 0.000002 0.911161 -10.303502 4.647262 0.000009 -0.005234 0.042950 -0.000003 0.000002 -0.000004 0.000002 0.000001 0.000001 0.000001 -0.000002 0.000000 0.000001 -0.000001 -0.000000 0.000001 -0.000002 0.000000 0.000001 -0.000002 0.000000 0.000001 -0.000002 0.000000 0.000001 -0.000001 -0.000000 0.000001 -0.000002 0.000000 0.000001 -0.000002 0.000000 0.000001 -0.000002 0.000000 0.000001 -0.000001 -0.000000 -0.000000 0.000000 0.000001 -0.000000 0.000000 0.000001 -0.000000 0.000000 0.000001 
7.888669 67.277626 8.798156 -8.823094 -5.941017 -8.666001 0.000000 -0.000000 0.000000 1.318473 12.826247 18.387474 35.786913 4.756505 2.217046 -28.016205 5.625326 -13.550096 -0.000000 -0.000002 0.000000 0.000001 0.000000 0.000000 -38.000225 -7.685446 -13.443472 52.539885 -6.520304 3.412540 -7.672849 -18.447103 -7.096379 -0.000001 -0.000002 0.000000 0.000001 0.000000 -0.000002 13.125084 -8.888363 3.607370 5.667812 -2.950174 4.903703 5.658944 -2.772053 4.929062 2.920506 2.949592 -1.570748 19.962932 13.423584 -8.615394 0.000002 -0.000000 0.000000 0.000002 -0.000000 0.000000 0.000002 -0.000000 0.000000 0.000002 -0.000000 0.000000 -0.000001 0.000000 -0.000000 0.000002 -0.000000 0.000000 -0.000001 0.000000 -0.000000 0.000002 -0.000000 0.000000 0.000002 -0.000000 0.000000 6.235894 -11.801864 7.852347 -31.566467 21.565851 -35.735761 0.000120 -79.470385 0.000120 -41.833413 -11.479702 1.106844 -1.626848 3.455437 7.531980 4.625171 16.346506 1.370957 -0.000001 -0.000000 -0.000001 0.034875 0.693476 -5.756311 0.035288 0.697604 -5.790847 0.000001 -0.000001 -0.000000 0.034678 0.691571 -5.740312 0.035488 0.699526 -5.806838 -0.000001 0.000001 0.000001 0.422034 4.693998 -5.289269 0.035288 0.697617 -5.790836 0.000001 -0.000000 -0.000003 1.236807 14.341647 -4.232395 0.023498 -3.356987 -6.298998 0.000002 -0.000001 0.000003 -0.000000 -0.000001 -0.000001 6.343479 20.369905 0.090773 -10.275447 -20.509103 52.636125 0.000260 81.145024 -0.000251 -15.909990 -5.347264 -6.334452 -1.846754 -3.321269 -6.545661 5.123615 -13.979106 -0.601025 -0.000000 -0.000002 -0.000003 0.035001 -0.698274 5.739644 0.000019 -0.010157 0.083247 -0.000000 0.000000 -0.000005 0.035002 -0.698274 5.739644 0.000027 -0.010161 0.083240 0.000000 0.000000 0.000001 0.420781 -4.698345 5.267884 0.000010 -0.010151 0.083255 -0.000001 -0.000001 -0.000001 0.910895 -10.303348 4.645772 0.000019 -0.010150 0.083258 0.000002 0.000001 0.000001 -0.000001 -0.000001 0.000000 0.000000 -0.000001 -0.000000 0.000000 -0.000001 0.000000 0.000000 -0.000001 -0.000000 0.000000 -0.000001 -0.000000 0.000000 -0.000001 -0.000000 0.000000 -0.000001 0.000000 0.000000 -0.000001 -0.000000 0.000000 -0.000001 -0.000000 0.000000 -0.000001 -0.000000 0.000000 -0.000001 0.000000 0.000000 -0.000000 0.000000 0.000000 -0.000000 0.000000 0.000000 -0.000000 0.000000 
